<svg width="124" height="100" viewBox="0 0 124 100" fill="none" xmlns="http://www.w3.org/2000/svg">
<circle cx="50" cy="50" r="50" fill="white" fill-opacity="0.5"/>
<circle cx="50" cy="50" r="49.5" stroke="black" stroke-opacity="0.3"/>
<path fill-rule="evenodd" clip-rule="evenodd" d="M108.037 74.4674L102.647 69.302L106.543 65.5664L111.931 70.7299L108.037 74.4674ZM94.1593 87.7806L88.2053 88.3L88.7333 82.6344L99.9673 71.8684L105.359 77.0358L94.1593 87.7806ZM114.807 68.0638L114.805 68.0619L109.329 62.8141C107.847 61.3977 105.301 61.3306 103.897 62.6818L85.9053 79.9242C85.2533 80.5471 84.8493 81.3751 84.7653 82.251L84.0073 90.2435C83.9553 90.8089 84.1653 91.3686 84.5853 91.7711C84.9633 92.1333 85.4733 92.3327 85.9993 92.3327C86.0613 92.3327 86.1213 92.3307 86.1813 92.325L94.5213 91.5986C95.4373 91.5181 96.2993 91.1328 96.9493 90.5099L114.943 73.2657C116.399 71.8665 116.337 69.532 114.807 68.0638Z" fill="#223345" fill-opacity="0.7"/>
<mask id="mask0_1141_6664" style="mask-type:alpha" maskUnits="userSpaceOnUse" x="83" y="61" width="33" height="32">
<path fill-rule="evenodd" clip-rule="evenodd" d="M108.037 74.4674L102.647 69.302L106.543 65.5664L111.931 70.7299L108.037 74.4674ZM94.1593 87.7806L88.2053 88.3L88.7333 82.6344L99.9673 71.8684L105.359 77.0358L94.1593 87.7806ZM114.807 68.0638L114.805 68.0619L109.329 62.8141C107.847 61.3977 105.301 61.3306 103.897 62.6818L85.9053 79.9242C85.2533 80.5471 84.8493 81.3751 84.7653 82.251L84.0073 90.2435C83.9553 90.8089 84.1653 91.3686 84.5853 91.7711C84.9633 92.1333 85.4733 92.3327 85.9993 92.3327C86.0613 92.3327 86.1213 92.3307 86.1813 92.325L94.5213 91.5986C95.4373 91.5181 96.2993 91.1328 96.9493 90.5099L114.943 73.2657C116.399 71.8665 116.337 69.532 114.807 68.0638Z" fill="white"/>
</mask>
<g mask="url(#mask0_1141_6664)">
</g>
</svg>
