<svg width="18" height="20" viewBox="0 0 18 20" fill="none" xmlns="http://www.w3.org/2000/svg">
<path d="M12.78 0H5.22C1.44 0 0.5 1.01 0.5 5.04V16.3C0.5 18.96 1.96 19.59 3.73 17.69L3.74 17.68C4.56 16.81 5.81 16.88 6.52 17.83L7.53 19.18C8.34 20.25 9.65 20.25 10.46 19.18L11.47 17.83C12.19 16.87 13.44 16.8 14.26 17.68C16.04 19.58 17.49 18.95 17.49 16.29V5.04C17.5 1.01 16.56 0 12.78 0ZM4.78 10C4.23 10 3.78 9.55 3.78 9C3.78 8.45 4.23 8 4.78 8C5.33 8 5.78 8.45 5.78 9C5.78 9.55 5.33 10 4.78 10ZM4.78 6C4.23 6 3.78 5.55 3.78 5C3.78 4.45 4.23 4 4.78 4C5.33 4 5.78 4.45 5.78 5C5.78 5.55 5.33 6 4.78 6ZM13.23 9.75H7.73C7.32 9.75 6.98 9.41 6.98 9C6.98 8.59 7.32 8.25 7.73 8.25H13.23C13.64 8.25 13.98 8.59 13.98 9C13.98 9.41 13.64 9.75 13.23 9.75ZM13.23 5.75H7.73C7.32 5.75 6.98 5.41 6.98 5C6.98 4.59 7.32 4.25 7.73 4.25H13.23C13.64 4.25 13.98 4.59 13.98 5C13.98 5.41 13.64 5.75 13.23 5.75Z" fill="#1B1919"/>
</svg>
